<svg xmlns="http://www.w3.org/2000/svg" width="400" height="280" viewBox="0 0 400 280" fill="none">
  <path d="M293.49 159.66C293.49 159.66 299.3 164.56 300.58 162.38C301.86 160.2 301.22 157.38 301.22 157.38L297.04 155.84L293.49 159.66Z" fill="#F2F2F2"/>
  <path d="M193.77 168.84C193.77 168.84 188.88 174.65 190.14 175.93C191.4 177.21 194.22 177.49 194.22 177.49L196.68 174.23L193.77 168.84Z" fill="#F2F2F2"/>
  <path d="M372.5 253.09H17.64C8.85 253.09 1.73 245.97 1.73 237.18V15.91C1.73 7.12 8.85 0 17.64 0H372.5C381.29 0 388.41 7.12 388.41 15.91V237.18C388.41 245.97 381.29 253.09 372.5 253.09Z" fill="#F5F5F5"/>
  <path d="M372.5 0H17.64C8.85 0 1.73 7.12 1.73 15.91V37.13H388.41V15.91C388.41 7.12 381.29 0 372.5 0Z" fill="#FF6F91"/>
  <path d="M26.92 24.63C30.49 24.63 33.39 21.74 33.39 18.16C33.39 14.58 30.49 11.69 26.92 11.69C23.34 11.69 20.45 14.58 20.45 18.16C20.45 21.74 23.34 24.63 26.92 24.63Z" fill="white"/>
  <path d="M51.51 24.63C55.09 24.63 57.98 21.74 57.98 18.16C57.98 14.58 55.09 11.69 51.51 11.69C47.93 11.69 45.04 14.58 45.04 18.16C45.04 21.74 47.93 24.63 51.51 24.63Z" fill="white"/>
  <path d="M76.1 24.63C79.68 24.63 82.57 21.74 82.57 18.16C82.57 14.58 79.68 11.69 76.1 11.69C72.52 11.69 69.63 14.58 69.63 18.16C69.63 21.74 72.52 24.63 76.1 24.63Z" fill="white"/>
  <rect x="110.99" y="68.49" width="169.9" height="116.54" rx="4.24" fill="white"/>
  <path d="M195.94 112.26C190.59 112.26 186.26 107.93 186.26 102.58C186.26 97.23 190.59 92.9 195.94 92.9C201.29 92.9 205.62 97.23 205.62 102.58C205.62 107.93 201.29 112.26 195.94 112.26ZM195.94 95.33C191.93 95.33 188.69 98.57 188.69 102.58C188.69 106.59 191.93 109.83 195.94 109.83C199.95 109.83 203.19 106.59 203.19 102.58C203.19 98.57 199.95 95.33 195.94 95.33Z" fill="#FF6F91"/>
  <path d="M195.94 160.62C192.79 160.62 189.73 159.69 187.17 157.96C184.62 156.22 182.7 153.77 181.67 150.91C180.64 148.05 180.55 144.94 181.42 142.02C182.28 139.09 184.06 136.51 186.51 134.62C188.95 132.74 191.95 131.65 195.05 131.5C198.14 131.35 201.23 132.14 203.84 133.76C206.45 135.38 208.44 137.76 209.54 140.59C210.65 143.42 210.8 146.54 209.97 149.47L207.63 148.85C208.31 146.39 208.19 143.77 207.28 141.39C206.37 139.01 204.73 136.98 202.61 135.63C200.48 134.28 197.96 133.65 195.43 133.77C192.91 133.89 190.47 134.76 188.48 136.27C186.5 137.77 185.06 139.83 184.37 142.16C183.68 144.49 183.76 146.96 184.61 149.24C185.47 151.52 187.05 153.48 189.11 154.84C191.17 156.2 193.59 156.89 196.05 156.8L196.13 159.23C196.07 159.23 196 159.24 195.94 159.24V160.62Z" fill="#FF6F91"/>
  <path d="M195.94 149.68C197.58 149.68 198.91 148.34 198.91 146.71C198.91 145.07 197.58 143.74 195.94 143.74C194.3 143.74 192.97 145.07 192.97 146.71C192.97 148.34 194.3 149.68 195.94 149.68Z" fill="#FF6F91"/>
  <path d="M253.16 214.03H138.72C134.34 214.03 130.79 210.47 130.79 206.1V47.43C130.79 43.06 134.34 39.5 138.72 39.5H253.16C257.54 39.5 261.09 43.06 261.09 47.43V206.1C261.09 210.47 257.54 214.03 253.16 214.03Z" fill="white"/>
  <path d="M195.94 206.88C199.88 206.88 203.09 203.68 203.09 199.73C203.09 195.79 199.88 192.58 195.94 192.58C192 192.58 188.79 195.79 188.79 199.73C188.79 203.68 192 206.88 195.94 206.88Z" fill="#E6E6E6"/>
  <rect x="149.54" y="60.27" width="92.8" height="8.12" rx="2.5" fill="#FF6F91"/>
  <rect x="149.54" y="79.05" width="92.8" height="8.12" rx="2.5" fill="#F2F2F2"/>
  <rect x="149.54" y="97.83" width="92.8" height="8.12" rx="2.5" fill="#F2F2F2"/>
  <rect x="149.54" y="116.61" width="92.8" height="8.12" rx="2.5" fill="#F2F2F2"/>
  <rect x="149.54" y="135.39" width="92.8" height="8.12" rx="2.5" fill="#F2F2F2"/>
  <rect x="149.54" y="154.17" width="92.8" height="8.12" rx="2.5" fill="#F2F2F2"/>
  <rect x="149.54" y="172.95" width="92.8" height="8.12" rx="2.5" fill="#F2F2F2"/>
  <path d="M318.65 162.1L307.86 151.31L309.69 149.48L318.65 158.44L350.22 126.87L352.05 128.7L318.65 162.1Z" fill="#FF6F91"/>
  <path d="M338.7 201.05H283.79C280.14 201.05 277.18 198.09 277.18 194.44V135.77C277.18 132.12 280.14 129.16 283.79 129.16H338.7C342.35 129.16 345.31 132.12 345.31 135.77V194.44C345.31 198.09 342.35 201.05 338.7 201.05Z" fill="white"/>
  <path d="M311.25 185.76C313.43 185.76 315.2 183.99 315.2 181.81C315.2 179.63 313.43 177.86 311.25 177.86C309.07 177.86 307.3 179.63 307.3 181.81C307.3 183.99 309.07 185.76 311.25 185.76Z" fill="#E6E6E6"/>
  <rect x="290.97" y="143.08" width="40.54" height="3.55" rx="1.77" fill="#FF6F91"/>
  <rect x="290.97" y="151.25" width="40.54" height="3.55" rx="1.77" fill="#F2F2F2"/>
  <rect x="290.97" y="159.41" width="40.54" height="3.55" rx="1.77" fill="#F2F2F2"/>
  <rect x="290.97" y="167.58" width="40.54" height="3.55" rx="1.77" fill="#F2F2F2"/>
  <path d="M92.12 167.18H49.22C46.4 167.18 44.11 164.89 44.11 162.07V114.99C44.11 112.17 46.4 109.88 49.22 109.88H92.12C94.95 109.88 97.24 112.17 97.24 114.99V162.07C97.24 164.89 94.95 167.18 92.12 167.18Z" fill="white"/>
  <path d="M70.67 155.19C72.33 155.19 73.68 153.85 73.68 152.18C73.68 150.52 72.33 149.17 70.67 149.17C69.01 149.17 67.66 150.52 67.66 152.18C67.66 153.85 69.01 155.19 70.67 155.19Z" fill="#E6E6E6"/>
  <path d="M79.4 198.5H27.98C24.52 198.5 21.7 195.69 21.7 192.22V122.26C21.7 118.8 24.52 115.98 27.98 115.98H79.4C82.86 115.98 85.68 118.8 85.68 122.26V192.22C85.68 195.69 82.86 198.5 79.4 198.5Z" fill="white"/>
  <circle cx="53.69" cy="183.74" r="4.76" fill="#FF6F91"/>
  <rect x="37.67" y="132.93" width="32.05" height="2.8" rx="1.4" fill="#FF6F91"/>
  <rect x="37.67" y="139.34" width="32.05" height="2.8" rx="1.4" fill="#F2F2F2"/>
  <rect x="37.67" y="145.75" width="32.05" height="2.8" rx="1.4" fill="#F2F2F2"/>
  <rect x="37.67" y="152.15" width="32.05" height="2.8" rx="1.4" fill="#F2F2F2"/>
  <rect x="37.67" y="158.56" width="32.05" height="2.8" rx="1.4" fill="#F2F2F2"/>
  <rect x="37.67" y="164.97" width="32.05" height="2.8" rx="1.4" fill="#F2F2F2"/>
  <rect x="37.67" y="171.37" width="32.05" height="2.8" rx="1.4" fill="#F2F2F2"/>
  <path d="M377.13 279.73H12.95C10.18 279.73 9.5 279.05 9.5 276.27C9.5 273.5 10.18 272.82 12.95 272.82H377.13C379.91 272.82 380.59 273.5 380.59 276.27C380.59 279.05 379.91 279.73 377.13 279.73Z" fill="#3F3D56"/>
  <path d="M118.92 253.09C123.18 243.72 124.68 233.32 123.25 223.12C121.82 212.92 117.51 203.42 110.85 195.87C104.19 188.32 95.45 183.01 85.82 180.63C76.19 178.25 66.08 178.93 56.8 182.59L58.36 184.84C66.99 181.42 76.37 180.79 85.32 183.04C94.26 185.29 102.38 190.31 108.58 197.43C114.79 204.55 118.81 213.5 120.15 223.11C121.5 232.71 120.09 242.52 116.12 251.37L118.92 253.09Z" fill="#3F3D56"/>
  <path d="M51.95 189.69L60.35 181.16L51.81 189.56L51.47 183.41L51.95 189.69Z" fill="#3F3D56"/>
  <path d="M116.12 256.69L124.52 248.16L115.98 256.56L115.64 250.41L116.12 256.69Z" fill="#3F3D56"/>
  <circle cx="194.59" cy="60.6" r="14.76" fill="white"/>
  <path d="M194.94 73.33C190.82 73.33 187.75 70.25 187.75 66.14C187.75 65.54 187.82 64.95 187.96 64.38C188.38 62.61 189.4 61.05 190.82 59.95C192.25 58.85 194.01 58.3 195.84 58.39C197.68 58.48 199.37 59.21 200.67 60.45C201.97 61.69 202.8 63.36 202.97 65.18C203.14 67.01 202.65 68.82 201.6 70.33C200.55 71.83 199.02 72.9 197.27 73.35C196.5 73.26 195.72 73.24 194.94 73.33Z" fill="#FF6F91"/>
  <circle cx="363.31" cy="42.17" r="6.27" fill="#FF6F91"/>
  <circle cx="348.66" cy="86.76" r="6.27" fill="#FF6F91"/>
  <circle cx="363.31" cy="131.35" r="6.27" fill="#FF6F91"/>
  <circle cx="348.66" cy="175.93" r="6.27" fill="#FF6F91"/>
  <circle cx="363.31" cy="220.52" r="6.27" fill="#FF6F91"/>
</svg> 